<?xml version="1.0" encoding="iso-8859-1"?>
<!-- Generator: Adobe Illustrator 19.0.0, SVG Export Plug-In . SVG Version: 6.00 Build 0)  -->
<svg version="1.1" id="Layer_1" xmlns="http://www.w3.org/2000/svg" xmlns:xlink="http://www.w3.org/1999/xlink" x="0px" y="0px"
	 viewBox="0 0 512 512" style="enable-background:new 0 0 512 512;" xml:space="preserve">
<path style="fill:#6BBAE2;" d="M489.739,478.609H89.043c-9.217,0-16.696-7.473-16.696-16.696s7.479-16.696,16.696-16.696h400.696
	c9.217,0,16.696,7.473,16.696,16.696S498.956,478.609,489.739,478.609z"/>
<path style="fill:#60AED5;" d="M489.739,445.217H322.783v33.391h166.957c9.217,0,16.696-7.473,16.696-16.696
	S498.956,445.217,489.739,445.217z"/>
<path style="fill:#8A9199;" d="M489.739,378.435H155.826c-9.217,0-16.696-7.473-16.696-16.696V16.696
	C139.13,7.473,146.609,0,155.826,0h333.913c9.217,0,16.696,7.473,16.696,16.696v345.043
	C506.435,370.962,498.956,378.435,489.739,378.435z"/>
<path style="fill:#737980;" d="M489.739,0H322.783v378.435h166.957c9.217,0,16.696-7.473,16.696-16.696V16.696
	C506.435,7.473,498.956,0,489.739,0z"/>
<rect x="172.522" y="33.391" style="fill:#DBE9FD;" width="300.522" height="311.652"/>
<rect x="322.783" y="33.391" style="fill:#C5DCFD;" width="150.261" height="311.652"/>
<g>
	<path style="fill:#9DCA40;" d="M55.652,378.435c-9.217,0-16.696-7.473-16.696-16.696V50.087c0-9.223,7.479-16.696,16.696-16.696
		s16.696,7.473,16.696,16.696v311.652C72.348,370.962,64.869,378.435,55.652,378.435z"/>
	<path style="fill:#9DCA40;" d="M55.652,411.826c-4.272,0-8.544-1.631-11.804-4.892l-33.391-33.391
		c-3.261-3.26-4.892-7.532-4.892-11.804s1.631-8.544,4.892-11.804c6.521-6.521,17.087-6.521,23.609,0l21.586,21.586l21.587-21.587
		c6.521-6.521,17.087-6.521,23.609,0c3.26,3.261,4.891,7.533,4.891,11.805s-1.631,8.544-4.892,11.804l-33.391,33.391
		C64.196,410.195,59.924,411.826,55.652,411.826z"/>
	<path style="fill:#9DCA40;" d="M89.043,66.783c-4.272,0-8.544-1.631-11.804-4.892L55.652,40.304L34.065,61.891
		c-6.521,6.521-17.087,6.521-23.609,0c-3.26-3.26-4.891-7.532-4.891-11.804s1.631-8.544,4.892-11.804L43.848,4.892
		c6.521-6.521,17.087-6.521,23.609,0l33.391,33.391c3.26,3.26,4.891,7.532,4.891,11.804s-1.631,8.544-4.892,11.804
		C97.586,65.151,93.315,66.783,89.043,66.783z"/>
</g>
<path style="fill:#8A9199;" d="M261.565,378.435h-33.391v-83.478c0-9.22,7.475-16.696,16.696-16.696l0,0
	c9.22,0,16.696,7.475,16.696,16.696V378.435z"/>
<path style="fill:#737980;" d="M506.435,133.565h-83.478c-9.217,0-16.696,7.473-16.696,16.696s7.479,16.696,16.696,16.696h83.478
	V133.565z"/>
<path style="fill:#8A9199;" d="M228.174,0v217.043c0,9.223,7.479,16.696,16.696,16.696s16.696-7.473,16.696-16.696V0H228.174z"/>
<path style="fill:#6BBAE2;" d="M122.435,512c-4.272,0-8.544-1.631-11.804-4.892L77.24,473.717c-6.521-6.516-6.521-17.092,0-23.609
	l33.391-33.391c6.521-6.521,17.087-6.521,23.609,0c6.521,6.516,6.521,17.092,0,23.609l-21.587,21.587L134.24,483.5
	c6.521,6.516,6.521,17.092,0,23.609C130.979,510.369,126.707,512,122.435,512z"/>
<path style="fill:#60AED5;" d="M456.348,512c-4.272,0-8.544-1.631-11.804-4.892c-6.521-6.516-6.521-17.092,0-23.609l21.586-21.586
	l-21.587-21.587c-6.521-6.516-6.521-17.092,0-23.609c6.521-6.521,17.087-6.521,23.609,0l33.391,33.391
	c6.521,6.516,6.521,17.092,0,23.609l-33.391,33.391C464.892,510.369,460.62,512,456.348,512z"/>
<path style="fill:#8A9199;" d="M345.043,166.957H244.87c-9.217,0-16.696-7.473-16.696-16.696s7.479-16.696,16.696-16.696h100.174
	c9.217,0,16.696,7.473,16.696,16.696S354.261,166.957,345.043,166.957z"/>
<path style="fill:#737980;" d="M345.043,133.565h-22.261v33.391h22.261c9.217,0,16.696-7.473,16.696-16.696
	S354.261,133.565,345.043,133.565z"/>
<g>
</g>
<g>
</g>
<g>
</g>
<g>
</g>
<g>
</g>
<g>
</g>
<g>
</g>
<g>
</g>
<g>
</g>
<g>
</g>
<g>
</g>
<g>
</g>
<g>
</g>
<g>
</g>
<g>
</g>
</svg>
